<?xml version="1.0" encoding="UTF-8" standalone="no"?>
<!DOCTYPE svg PUBLIC "-//W3C//DTD SVG 1.1//EN"
 "http://www.w3.org/Graphics/SVG/1.1/DTD/svg11.dtd">
<!-- Generated by graphviz version 2.40.1 (0)
 -->
<!-- Title: G Pages: 1 -->
<svg width="785pt" height="372pt"
 viewBox="0.00 0.00 785.00 372.00" xmlns="http://www.w3.org/2000/svg" xmlns:xlink="http://www.w3.org/1999/xlink">
<g id="graph0" class="graph" transform="scale(1 1) rotate(0) translate(4 368)">
<title>G</title>
<polygon fill="#ffffff" stroke="transparent" points="-4,4 -4,-368 781,-368 781,4 -4,4"/>
<!-- Component -->
<g id="node1" class="node">
<title>Component</title>
<polygon fill="#d01c8b" stroke="#d01c8b" points="593,-364 495,-364 495,-360 491,-360 491,-356 495,-356 495,-336 491,-336 491,-332 495,-332 495,-328 593,-328 593,-364"/>
<polyline fill="none" stroke="#d01c8b" points="495,-360 499,-360 499,-356 495,-356 "/>
<polyline fill="none" stroke="#d01c8b" points="495,-336 499,-336 499,-332 495,-332 "/>
<text text-anchor="middle" x="544" y="-342.3" font-family="Times,serif" font-size="14.00" fill="#000000">Component</text>
</g>
<!-- Resources -->
<g id="node2" class="node">
<title>Resources</title>
<polygon fill="#f1b6da" stroke="#f1b6da" points="167,-292 89,-292 89,-296 77,-296 77,-256 167,-256 167,-292"/>
<polyline fill="none" stroke="#f1b6da" points="77,-292 89,-292 "/>
<text text-anchor="middle" x="122" y="-270.3" font-family="Times,serif" font-size="14.00" fill="#000000">Resources</text>
</g>
<!-- Component&#45;&gt;Resources -->
<g id="edge1" class="edge">
<title>Component&#45;&gt;Resources</title>
<path fill="none" stroke="#000000" d="M494.7653,-337.5998C415.4538,-324.0679 259.9354,-297.534 177.0601,-283.3941"/>
<polygon fill="#000000" stroke="#000000" points="177.5264,-279.9232 167.0801,-281.6914 176.349,-286.8235 177.5264,-279.9232"/>
</g>
<!-- Environment -->
<g id="node4" class="node">
<title>Environment</title>
<polygon fill="#f1b6da" stroke="#f1b6da" points="375,-292 279,-292 279,-296 267,-296 267,-256 375,-256 375,-292"/>
<polyline fill="none" stroke="#f1b6da" points="267,-292 279,-292 "/>
<text text-anchor="middle" x="321" y="-270.3" font-family="Times,serif" font-size="14.00" fill="#000000">Environment</text>
</g>
<!-- Component&#45;&gt;Environment -->
<g id="edge2" class="edge">
<title>Component&#45;&gt;Environment</title>
<path fill="none" stroke="#000000" d="M494.7856,-330.1102C462.4271,-319.6625 419.7637,-305.8878 384.8069,-294.6013"/>
<polygon fill="#000000" stroke="#000000" points="385.7583,-291.2307 375.1666,-291.4888 383.6075,-297.8921 385.7583,-291.2307"/>
</g>
<!-- Configs -->
<g id="node14" class="node">
<title>Configs</title>
<polygon fill="#f1b6da" stroke="#f1b6da" points="579,-292 521,-292 521,-296 509,-296 509,-256 579,-256 579,-292"/>
<polyline fill="none" stroke="#f1b6da" points="509,-292 521,-292 "/>
<text text-anchor="middle" x="544" y="-270.3" font-family="Times,serif" font-size="14.00" fill="#000000">Configs</text>
</g>
<!-- Component&#45;&gt;Configs -->
<g id="edge3" class="edge">
<title>Component&#45;&gt;Configs</title>
<path fill="none" stroke="#000000" d="M544,-327.8314C544,-320.131 544,-310.9743 544,-302.4166"/>
<polygon fill="#000000" stroke="#000000" points="547.5001,-302.4132 544,-292.4133 540.5001,-302.4133 547.5001,-302.4132"/>
</g>
<!-- Secrets -->
<g id="node16" class="node">
<title>Secrets</title>
<polygon fill="#f1b6da" stroke="#f1b6da" points="671,-292 613,-292 613,-296 601,-296 601,-256 671,-256 671,-292"/>
<polyline fill="none" stroke="#f1b6da" points="601,-292 613,-292 "/>
<text text-anchor="middle" x="636" y="-270.3" font-family="Times,serif" font-size="14.00" fill="#000000">Secrets</text>
</g>
<!-- Component&#45;&gt;Secrets -->
<g id="edge4" class="edge">
<title>Component&#45;&gt;Secrets</title>
<path fill="none" stroke="#000000" d="M567.2155,-327.8314C578.547,-318.9632 592.3464,-308.1637 604.6027,-298.5718"/>
<polygon fill="#000000" stroke="#000000" points="607.074,-301.0822 612.7919,-292.1628 602.7598,-295.5697 607.074,-301.0822"/>
</g>
<!-- Storage -->
<g id="node18" class="node">
<title>Storage</title>
<polygon fill="#f1b6da" stroke="#f1b6da" points="767,-292 707,-292 707,-296 695,-296 695,-256 767,-256 767,-292"/>
<polyline fill="none" stroke="#f1b6da" points="695,-292 707,-292 "/>
<text text-anchor="middle" x="731" y="-270.3" font-family="Times,serif" font-size="14.00" fill="#000000">Storage</text>
</g>
<!-- Component&#45;&gt;Storage -->
<g id="edge5" class="edge">
<title>Component&#45;&gt;Storage</title>
<path fill="none" stroke="#000000" d="M591.188,-327.8314C620.059,-316.7152 656.8116,-302.5645 685.3888,-291.5615"/>
<polygon fill="#000000" stroke="#000000" points="686.669,-294.8191 694.7436,-287.9597 684.1538,-288.2866 686.669,-294.8191"/>
</g>
<!-- AttachedResource n -->
<g id="node3" class="node">
<title>AttachedResource n</title>
<polygon fill="#d01c8b" stroke="#d01c8b" points="160,-220 0,-220 0,-216 -4,-216 -4,-212 0,-212 0,-192 -4,-192 -4,-188 0,-188 0,-184 160,-184 160,-220"/>
<polyline fill="none" stroke="#d01c8b" points="0,-216 4,-216 4,-212 0,-212 "/>
<polyline fill="none" stroke="#d01c8b" points="0,-192 4,-192 4,-188 0,-188 "/>
<text text-anchor="middle" x="80" y="-198.3" font-family="Times,serif" font-size="14.00" fill="#000000">AttachedResource n</text>
</g>
<!-- Resources&#45;&gt;AttachedResource n -->
<g id="edge17" class="edge">
<title>Resources&#45;&gt;AttachedResource n</title>
<path fill="none" stroke="#000000" d="M111.4016,-255.8314C106.7123,-247.7925 101.0972,-238.1666 95.9202,-229.2918"/>
<polygon fill="#000000" stroke="#000000" points="98.8031,-227.2875 90.7411,-220.4133 92.7566,-230.8146 98.8031,-227.2875"/>
</g>
<!-- Build -->
<g id="node5" class="node">
<title>Build</title>
<polygon fill="#f7f7f7" stroke="#f7f7f7" points="232,-220 190,-220 190,-224 178,-224 178,-184 232,-184 232,-220"/>
<polyline fill="none" stroke="#f7f7f7" points="178,-220 190,-220 "/>
<text text-anchor="middle" x="205" y="-198.3" font-family="Times,serif" font-size="14.00" fill="#000000">Build</text>
</g>
<!-- Environment&#45;&gt;Build -->
<g id="edge6" class="edge">
<title>Environment&#45;&gt;Build</title>
<path fill="none" stroke="#000000" d="M291.7283,-255.8314C276.3249,-246.2706 257.3049,-234.4651 241.0053,-224.3481"/>
<polygon fill="#000000" stroke="#000000" points="242.6123,-221.2262 232.2701,-218.9263 238.9208,-227.1737 242.6123,-221.2262"/>
</g>
<!-- Local -->
<g id="node6" class="node">
<title>Local</title>
<polygon fill="#f7f7f7" stroke="#f7f7f7" points="305.5,-220 262.5,-220 262.5,-224 250.5,-224 250.5,-184 305.5,-184 305.5,-220"/>
<polyline fill="none" stroke="#f7f7f7" points="250.5,-220 262.5,-220 "/>
<text text-anchor="middle" x="278" y="-198.3" font-family="Times,serif" font-size="14.00" fill="#000000">Local</text>
</g>
<!-- Environment&#45;&gt;Local -->
<g id="edge7" class="edge">
<title>Environment&#45;&gt;Local</title>
<path fill="none" stroke="#000000" d="M310.1493,-255.8314C305.2977,-247.7079 299.4783,-237.9637 294.132,-229.0118"/>
<polygon fill="#000000" stroke="#000000" points="297.1292,-227.2041 288.9968,-220.4133 291.1194,-230.7933 297.1292,-227.2041"/>
</g>
<!-- External -->
<g id="node7" class="node">
<title>External</title>
<polygon fill="#f7f7f7" stroke="#f7f7f7" points="400.5,-220 335.5,-220 335.5,-224 323.5,-224 323.5,-184 400.5,-184 400.5,-220"/>
<polyline fill="none" stroke="#f7f7f7" points="323.5,-220 335.5,-220 "/>
<text text-anchor="middle" x="362" y="-198.3" font-family="Times,serif" font-size="14.00" fill="#000000">External</text>
</g>
<!-- Environment&#45;&gt;External -->
<g id="edge8" class="edge">
<title>Environment&#45;&gt;External</title>
<path fill="none" stroke="#000000" d="M331.346,-255.8314C335.9237,-247.7925 341.4052,-238.1666 346.4588,-229.2918"/>
<polygon fill="#000000" stroke="#000000" points="349.6077,-230.8351 351.5147,-220.4133 343.5248,-227.3712 349.6077,-230.8351"/>
</g>
<!-- BuildEnvVar n -->
<g id="node11" class="node">
<title>BuildEnvVar n</title>
<polygon fill="#4dac26" stroke="#4dac26" points="114,-50 8,-50 8,-26 114,-26 126,-38 114,-50"/>
<text text-anchor="middle" x="67" y="-34.3" font-family="Times,serif" font-size="14.00" fill="#000000">BuildEnvVar n</text>
</g>
<!-- Build&#45;&gt;BuildEnvVar n -->
<g id="edge9" class="edge">
<title>Build&#45;&gt;BuildEnvVar n</title>
<path fill="none" stroke="#000000" d="M189.7043,-183.8225C165.2503,-154.7612 117.2441,-97.7103 89.0727,-64.2313"/>
<polygon fill="#000000" stroke="#000000" points="91.4808,-61.657 82.3642,-56.2589 86.1247,-66.1639 91.4808,-61.657"/>
</g>
<!-- EnvVar n -->
<g id="node10" class="node">
<title>EnvVar n</title>
<polygon fill="#4dac26" stroke="#4dac26" points="213.5,-50 144.5,-50 144.5,-26 213.5,-26 225.5,-38 213.5,-50"/>
<text text-anchor="middle" x="185" y="-34.3" font-family="Times,serif" font-size="14.00" fill="#000000">EnvVar n</text>
</g>
<!-- Local&#45;&gt;EnvVar n -->
<g id="edge10" class="edge">
<title>Local&#45;&gt;EnvVar n</title>
<path fill="none" stroke="#000000" d="M267.692,-183.8225C251.3518,-155.0075 219.4073,-98.6753 200.3606,-65.0875"/>
<polygon fill="#000000" stroke="#000000" points="203.3315,-63.2311 195.3541,-56.2589 197.2424,-66.6841 203.3315,-63.2311"/>
</g>
<!-- Consumes -->
<g id="node8" class="node">
<title>Consumes</title>
<polygon fill="#b8e186" stroke="#b8e186" points="351,-148 273,-148 273,-152 261,-152 261,-112 351,-112 351,-148"/>
<polyline fill="none" stroke="#b8e186" points="261,-148 273,-148 "/>
<text text-anchor="middle" x="306" y="-126.3" font-family="Times,serif" font-size="14.00" fill="#000000">Consumes</text>
</g>
<!-- External&#45;&gt;Consumes -->
<g id="edge11" class="edge">
<title>External&#45;&gt;Consumes</title>
<path fill="none" stroke="#000000" d="M347.8688,-183.8314C341.4189,-175.5386 333.6555,-165.557 326.5748,-156.4533"/>
<polygon fill="#000000" stroke="#000000" points="329.2236,-154.158 320.3214,-148.4133 323.6981,-158.4556 329.2236,-154.158"/>
</g>
<!-- Introduces -->
<g id="node9" class="node">
<title>Introduces</title>
<polygon fill="#b8e186" stroke="#b8e186" points="468.5,-148 387.5,-148 387.5,-152 375.5,-152 375.5,-112 468.5,-112 468.5,-148"/>
<polyline fill="none" stroke="#b8e186" points="375.5,-148 387.5,-148 "/>
<text text-anchor="middle" x="422" y="-126.3" font-family="Times,serif" font-size="14.00" fill="#000000">Introduces</text>
</g>
<!-- External&#45;&gt;Introduces -->
<g id="edge12" class="edge">
<title>External&#45;&gt;Introduces</title>
<path fill="none" stroke="#000000" d="M377.1405,-183.8314C384.1217,-175.454 392.5391,-165.3531 400.1876,-156.1749"/>
<polygon fill="#000000" stroke="#000000" points="402.9425,-158.3362 406.6556,-148.4133 397.5649,-153.8548 402.9425,-158.3362"/>
</g>
<!-- CExtEnvVar n -->
<g id="node12" class="node">
<title>CExtEnvVar n</title>
<polygon fill="#4dac26" stroke="#4dac26" points="346.5,-50 243.5,-50 243.5,-26 346.5,-26 358.5,-38 346.5,-50"/>
<text text-anchor="middle" x="301" y="-34.3" font-family="Times,serif" font-size="14.00" fill="#000000">CExtEnvVar n</text>
</g>
<!-- Consumes&#45;&gt;CExtEnvVar n -->
<g id="edge13" class="edge">
<title>Consumes&#45;&gt;CExtEnvVar n</title>
<path fill="none" stroke="#000000" d="M305.0122,-111.8238C304.3068,-98.8451 303.3442,-81.1329 302.5387,-66.3112"/>
<polygon fill="#000000" stroke="#000000" points="306.0234,-65.9338 301.9858,-56.1385 299.0337,-66.3137 306.0234,-65.9338"/>
</g>
<!-- IExtEnvVar n -->
<g id="node13" class="node">
<title>IExtEnvVar n</title>
<polygon fill="#4dac26" stroke="#4dac26" points="475,-50 377,-50 377,-26 475,-26 487,-38 475,-50"/>
<text text-anchor="middle" x="432" y="-34.3" font-family="Times,serif" font-size="14.00" fill="#000000">IExtEnvVar n</text>
</g>
<!-- Introduces&#45;&gt;IExtEnvVar n -->
<g id="edge14" class="edge">
<title>Introduces&#45;&gt;IExtEnvVar n</title>
<path fill="none" stroke="#000000" d="M423.9757,-111.8238C425.3864,-98.8451 427.3116,-81.1329 428.9227,-66.3112"/>
<polygon fill="#000000" stroke="#000000" points="432.4273,-66.4582 430.0284,-56.1385 425.4682,-65.7017 432.4273,-66.4582"/>
</g>
<!-- Config n -->
<g id="node15" class="node">
<title>Config n</title>
<polygon fill="#4dac26" stroke="#4dac26" points="576.5,-56 505.5,-56 505.5,-20 582.5,-20 582.5,-50 576.5,-56"/>
<polyline fill="none" stroke="#4dac26" points="576.5,-56 576.5,-50 "/>
<polyline fill="none" stroke="#4dac26" points="582.5,-50 576.5,-50 "/>
<text text-anchor="middle" x="544" y="-34.3" font-family="Times,serif" font-size="14.00" fill="#000000">Config n</text>
</g>
<!-- Configs&#45;&gt;Config n -->
<g id="edge15" class="edge">
<title>Configs&#45;&gt;Config n</title>
<path fill="none" stroke="#000000" d="M544,-255.8733C544,-215.0329 544,-115.5625 544,-66.4261"/>
<polygon fill="#000000" stroke="#000000" points="547.5001,-66.1884 544,-56.1884 540.5001,-66.1884 547.5001,-66.1884"/>
</g>
<!-- Secret n -->
<g id="node17" class="node">
<title>Secret n</title>
<polygon fill="#4dac26" stroke="#4dac26" points="677,-76 601,-76 601,0 677,0 677,-76"/>
<polyline fill="none" stroke="#4dac26" points="613,-76 601,-64 "/>
<polyline fill="none" stroke="#4dac26" points="601,-12 613,0 "/>
<polyline fill="none" stroke="#4dac26" points="665,0 677,-12 "/>
<polyline fill="none" stroke="#4dac26" points="677,-64 665,-76 "/>
<text text-anchor="middle" x="639" y="-34.3" font-family="Times,serif" font-size="14.00" fill="#000000">Secret n</text>
</g>
<!-- Secrets&#45;&gt;Secret n -->
<g id="edge16" class="edge">
<title>Secrets&#45;&gt;Secret n</title>
<path fill="none" stroke="#000000" d="M636.2304,-255.8733C636.6871,-219.9515 637.7203,-138.6714 638.3876,-86.1791"/>
<polygon fill="#000000" stroke="#000000" points="641.8884,-86.1302 638.5159,-76.0865 634.8889,-86.0411 641.8884,-86.1302"/>
</g>
<!-- Volume n -->
<g id="node19" class="node">
<title>Volume n</title>
<path fill="#4dac26" stroke="#4dac26" d="M777,-52.7273C777,-54.5331 758.6231,-56 736,-56 713.3769,-56 695,-54.5331 695,-52.7273 695,-52.7273 695,-23.2727 695,-23.2727 695,-21.4669 713.3769,-20 736,-20 758.6231,-20 777,-21.4669 777,-23.2727 777,-23.2727 777,-52.7273 777,-52.7273"/>
<path fill="none" stroke="#4dac26" d="M777,-52.7273C777,-50.9214 758.6231,-49.4545 736,-49.4545 713.3769,-49.4545 695,-50.9214 695,-52.7273"/>
<text text-anchor="middle" x="736" y="-34.3" font-family="Times,serif" font-size="14.00" fill="#000000">Volume n</text>
</g>
<!-- Storage&#45;&gt;Volume n -->
<g id="edge18" class="edge">
<title>Storage&#45;&gt;Volume n</title>
<path fill="none" stroke="#000000" d="M731.384,-255.8733C732.2493,-215.0329 734.3567,-115.5625 735.3978,-66.4261"/>
<polygon fill="#000000" stroke="#000000" points="738.902,-66.2603 735.6147,-56.1884 731.9035,-66.112 738.902,-66.2603"/>
</g>
</g>
</svg>
